<mxfile host="app.diagrams.net" modified="2021-10-21T06:32:10.773Z" agent="5.0 (Macintosh; Intel Mac OS X 10_15_7) AppleWebKit/537.36 (KHTML, like Gecko) Chrome/94.0.4606.81 Safari/537.36" etag="lIkYTW_83rs9pKC13TAR" version="15.5.2" type="github">
  <diagram id="C5RBs43oDa-KdzZeNtuy" name="Page-1">
    <mxGraphModel dx="2373" dy="812" grid="1" gridSize="10" guides="1" tooltips="1" connect="1" arrows="1" fold="1" page="1" pageScale="1" pageWidth="827" pageHeight="1169" math="0" shadow="0">
      <root>
        <mxCell id="WIyWlLk6GJQsqaUBKTNV-0" />
        <mxCell id="WIyWlLk6GJQsqaUBKTNV-1" parent="WIyWlLk6GJQsqaUBKTNV-0" />
        <mxCell id="XHO9Ade1wazlr6MdinSi-7" style="edgeStyle=orthogonalEdgeStyle;rounded=0;orthogonalLoop=1;jettySize=auto;html=1;entryX=0.5;entryY=0;entryDx=0;entryDy=0;entryPerimeter=0;" edge="1" parent="WIyWlLk6GJQsqaUBKTNV-1" source="XHO9Ade1wazlr6MdinSi-0" target="XHO9Ade1wazlr6MdinSi-3">
          <mxGeometry relative="1" as="geometry" />
        </mxCell>
        <mxCell id="XHO9Ade1wazlr6MdinSi-8" style="edgeStyle=orthogonalEdgeStyle;rounded=0;orthogonalLoop=1;jettySize=auto;html=1;entryX=0;entryY=0.5;entryDx=0;entryDy=0;entryPerimeter=0;" edge="1" parent="WIyWlLk6GJQsqaUBKTNV-1" source="XHO9Ade1wazlr6MdinSi-0" target="XHO9Ade1wazlr6MdinSi-4">
          <mxGeometry relative="1" as="geometry" />
        </mxCell>
        <mxCell id="XHO9Ade1wazlr6MdinSi-0" value="employee" style="strokeWidth=2;html=1;shape=mxgraph.flowchart.start_2;whiteSpace=wrap;" vertex="1" parent="WIyWlLk6GJQsqaUBKTNV-1">
          <mxGeometry x="60" y="140" width="100" height="100" as="geometry" />
        </mxCell>
        <mxCell id="XHO9Ade1wazlr6MdinSi-11" style="edgeStyle=orthogonalEdgeStyle;rounded=0;orthogonalLoop=1;jettySize=auto;html=1;entryX=0.5;entryY=0;entryDx=0;entryDy=0;entryPerimeter=0;" edge="1" parent="WIyWlLk6GJQsqaUBKTNV-1" source="XHO9Ade1wazlr6MdinSi-1" target="XHO9Ade1wazlr6MdinSi-5">
          <mxGeometry relative="1" as="geometry" />
        </mxCell>
        <mxCell id="XHO9Ade1wazlr6MdinSi-12" style="edgeStyle=orthogonalEdgeStyle;rounded=0;orthogonalLoop=1;jettySize=auto;html=1;entryX=1;entryY=0.5;entryDx=0;entryDy=0;entryPerimeter=0;" edge="1" parent="WIyWlLk6GJQsqaUBKTNV-1" source="XHO9Ade1wazlr6MdinSi-1" target="XHO9Ade1wazlr6MdinSi-6">
          <mxGeometry relative="1" as="geometry" />
        </mxCell>
        <mxCell id="XHO9Ade1wazlr6MdinSi-1" value="admin" style="strokeWidth=2;html=1;shape=mxgraph.flowchart.start_2;whiteSpace=wrap;" vertex="1" parent="WIyWlLk6GJQsqaUBKTNV-1">
          <mxGeometry x="620" y="170" width="100" height="100" as="geometry" />
        </mxCell>
        <mxCell id="XHO9Ade1wazlr6MdinSi-2" value="History logs" style="strokeWidth=2;html=1;shape=mxgraph.flowchart.start_2;whiteSpace=wrap;" vertex="1" parent="WIyWlLk6GJQsqaUBKTNV-1">
          <mxGeometry x="300" y="430" width="100" height="100" as="geometry" />
        </mxCell>
        <mxCell id="XHO9Ade1wazlr6MdinSi-10" style="edgeStyle=orthogonalEdgeStyle;rounded=0;orthogonalLoop=1;jettySize=auto;html=1;entryX=0.573;entryY=0.01;entryDx=0;entryDy=0;entryPerimeter=0;" edge="1" parent="WIyWlLk6GJQsqaUBKTNV-1" source="XHO9Ade1wazlr6MdinSi-3" target="XHO9Ade1wazlr6MdinSi-2">
          <mxGeometry relative="1" as="geometry">
            <Array as="points">
              <mxPoint x="357" y="280" />
            </Array>
          </mxGeometry>
        </mxCell>
        <mxCell id="XHO9Ade1wazlr6MdinSi-3" value="check in" style="strokeWidth=2;html=1;shape=mxgraph.flowchart.decision;whiteSpace=wrap;" vertex="1" parent="WIyWlLk6GJQsqaUBKTNV-1">
          <mxGeometry x="220" y="230" width="100" height="100" as="geometry" />
        </mxCell>
        <mxCell id="XHO9Ade1wazlr6MdinSi-9" style="edgeStyle=orthogonalEdgeStyle;rounded=0;orthogonalLoop=1;jettySize=auto;html=1;entryX=0.145;entryY=0.145;entryDx=0;entryDy=0;entryPerimeter=0;exitX=1;exitY=0.6;exitDx=0;exitDy=0;exitPerimeter=0;" edge="1" parent="WIyWlLk6GJQsqaUBKTNV-1" source="XHO9Ade1wazlr6MdinSi-4" target="XHO9Ade1wazlr6MdinSi-2">
          <mxGeometry relative="1" as="geometry" />
        </mxCell>
        <mxCell id="XHO9Ade1wazlr6MdinSi-4" value="see the &lt;br&gt;history" style="strokeWidth=2;html=1;shape=mxgraph.flowchart.decision;whiteSpace=wrap;" vertex="1" parent="WIyWlLk6GJQsqaUBKTNV-1">
          <mxGeometry x="150" y="300" width="100" height="100" as="geometry" />
        </mxCell>
        <mxCell id="XHO9Ade1wazlr6MdinSi-13" style="edgeStyle=orthogonalEdgeStyle;rounded=0;orthogonalLoop=1;jettySize=auto;html=1;entryX=1;entryY=0.5;entryDx=0;entryDy=0;entryPerimeter=0;exitX=0.5;exitY=1;exitDx=0;exitDy=0;exitPerimeter=0;" edge="1" parent="WIyWlLk6GJQsqaUBKTNV-1" source="XHO9Ade1wazlr6MdinSi-5" target="XHO9Ade1wazlr6MdinSi-2">
          <mxGeometry relative="1" as="geometry" />
        </mxCell>
        <mxCell id="XHO9Ade1wazlr6MdinSi-5" value="see the &lt;br&gt;history" style="strokeWidth=2;html=1;shape=mxgraph.flowchart.decision;whiteSpace=wrap;" vertex="1" parent="WIyWlLk6GJQsqaUBKTNV-1">
          <mxGeometry x="450" y="240" width="100" height="100" as="geometry" />
        </mxCell>
        <mxCell id="XHO9Ade1wazlr6MdinSi-14" style="edgeStyle=orthogonalEdgeStyle;rounded=0;orthogonalLoop=1;jettySize=auto;html=1;entryX=0.855;entryY=0.855;entryDx=0;entryDy=0;entryPerimeter=0;exitX=0.5;exitY=1;exitDx=0;exitDy=0;exitPerimeter=0;" edge="1" parent="WIyWlLk6GJQsqaUBKTNV-1" source="XHO9Ade1wazlr6MdinSi-6" target="XHO9Ade1wazlr6MdinSi-2">
          <mxGeometry relative="1" as="geometry" />
        </mxCell>
        <mxCell id="XHO9Ade1wazlr6MdinSi-6" value="edit the&lt;br&gt;database" style="strokeWidth=2;html=1;shape=mxgraph.flowchart.decision;whiteSpace=wrap;" vertex="1" parent="WIyWlLk6GJQsqaUBKTNV-1">
          <mxGeometry x="550" y="340" width="100" height="100" as="geometry" />
        </mxCell>
        <mxCell id="XHO9Ade1wazlr6MdinSi-19" style="edgeStyle=orthogonalEdgeStyle;rounded=0;orthogonalLoop=1;jettySize=auto;html=1;entryX=1;entryY=0.5;entryDx=0;entryDy=0;entryPerimeter=0;" edge="1" parent="WIyWlLk6GJQsqaUBKTNV-1" source="XHO9Ade1wazlr6MdinSi-16" target="XHO9Ade1wazlr6MdinSi-18">
          <mxGeometry relative="1" as="geometry" />
        </mxCell>
        <mxCell id="XHO9Ade1wazlr6MdinSi-21" style="edgeStyle=orthogonalEdgeStyle;rounded=0;orthogonalLoop=1;jettySize=auto;html=1;entryX=0;entryY=0.5;entryDx=0;entryDy=0;entryPerimeter=0;" edge="1" parent="WIyWlLk6GJQsqaUBKTNV-1" source="XHO9Ade1wazlr6MdinSi-16" target="XHO9Ade1wazlr6MdinSi-17">
          <mxGeometry relative="1" as="geometry" />
        </mxCell>
        <mxCell id="XHO9Ade1wazlr6MdinSi-16" value="login&lt;br&gt;page" style="strokeWidth=2;html=1;shape=mxgraph.flowchart.start_2;whiteSpace=wrap;" vertex="1" parent="WIyWlLk6GJQsqaUBKTNV-1">
          <mxGeometry x="350" y="30" width="100" height="100" as="geometry" />
        </mxCell>
        <mxCell id="XHO9Ade1wazlr6MdinSi-22" style="edgeStyle=orthogonalEdgeStyle;rounded=0;orthogonalLoop=1;jettySize=auto;html=1;entryX=0.5;entryY=0;entryDx=0;entryDy=0;entryPerimeter=0;" edge="1" parent="WIyWlLk6GJQsqaUBKTNV-1" source="XHO9Ade1wazlr6MdinSi-17" target="XHO9Ade1wazlr6MdinSi-1">
          <mxGeometry relative="1" as="geometry" />
        </mxCell>
        <mxCell id="XHO9Ade1wazlr6MdinSi-17" value="roleId = &lt;br&gt;admin" style="strokeWidth=2;html=1;shape=mxgraph.flowchart.decision;whiteSpace=wrap;" vertex="1" parent="WIyWlLk6GJQsqaUBKTNV-1">
          <mxGeometry x="510" y="30" width="100" height="100" as="geometry" />
        </mxCell>
        <mxCell id="XHO9Ade1wazlr6MdinSi-20" style="edgeStyle=orthogonalEdgeStyle;rounded=0;orthogonalLoop=1;jettySize=auto;html=1;entryX=0.5;entryY=0;entryDx=0;entryDy=0;entryPerimeter=0;" edge="1" parent="WIyWlLk6GJQsqaUBKTNV-1" source="XHO9Ade1wazlr6MdinSi-18" target="XHO9Ade1wazlr6MdinSi-0">
          <mxGeometry relative="1" as="geometry" />
        </mxCell>
        <mxCell id="XHO9Ade1wazlr6MdinSi-18" value="roleId =&amp;nbsp;&lt;br&gt;user" style="strokeWidth=2;html=1;shape=mxgraph.flowchart.decision;whiteSpace=wrap;" vertex="1" parent="WIyWlLk6GJQsqaUBKTNV-1">
          <mxGeometry x="180" y="30" width="100" height="100" as="geometry" />
        </mxCell>
        <mxCell id="XHO9Ade1wazlr6MdinSi-26" style="rounded=0;orthogonalLoop=1;jettySize=auto;html=1;exitX=0.855;exitY=0.145;exitDx=0;exitDy=0;exitPerimeter=0;entryX=0.145;entryY=0.855;entryDx=0;entryDy=0;entryPerimeter=0;" edge="1" parent="WIyWlLk6GJQsqaUBKTNV-1" source="XHO9Ade1wazlr6MdinSi-23" target="XHO9Ade1wazlr6MdinSi-0">
          <mxGeometry relative="1" as="geometry" />
        </mxCell>
        <mxCell id="XHO9Ade1wazlr6MdinSi-23" value="userId" style="strokeWidth=2;html=1;shape=mxgraph.flowchart.start_1;whiteSpace=wrap;" vertex="1" parent="WIyWlLk6GJQsqaUBKTNV-1">
          <mxGeometry x="-30" y="240" width="80" height="50" as="geometry" />
        </mxCell>
        <mxCell id="XHO9Ade1wazlr6MdinSi-27" style="edgeStyle=none;rounded=0;orthogonalLoop=1;jettySize=auto;html=1;exitX=1;exitY=0.5;exitDx=0;exitDy=0;exitPerimeter=0;entryX=0;entryY=0.5;entryDx=0;entryDy=0;entryPerimeter=0;" edge="1" parent="WIyWlLk6GJQsqaUBKTNV-1" source="XHO9Ade1wazlr6MdinSi-24" target="XHO9Ade1wazlr6MdinSi-0">
          <mxGeometry relative="1" as="geometry" />
        </mxCell>
        <mxCell id="XHO9Ade1wazlr6MdinSi-24" value="name" style="strokeWidth=2;html=1;shape=mxgraph.flowchart.start_1;whiteSpace=wrap;" vertex="1" parent="WIyWlLk6GJQsqaUBKTNV-1">
          <mxGeometry x="-70" y="160" width="80" height="50" as="geometry" />
        </mxCell>
        <mxCell id="XHO9Ade1wazlr6MdinSi-28" style="edgeStyle=none;rounded=0;orthogonalLoop=1;jettySize=auto;html=1;exitX=0.855;exitY=0.855;exitDx=0;exitDy=0;exitPerimeter=0;entryX=0.145;entryY=0.145;entryDx=0;entryDy=0;entryPerimeter=0;" edge="1" parent="WIyWlLk6GJQsqaUBKTNV-1" source="XHO9Ade1wazlr6MdinSi-25" target="XHO9Ade1wazlr6MdinSi-0">
          <mxGeometry relative="1" as="geometry" />
        </mxCell>
        <mxCell id="XHO9Ade1wazlr6MdinSi-25" value="roleId" style="strokeWidth=2;html=1;shape=mxgraph.flowchart.start_1;whiteSpace=wrap;" vertex="1" parent="WIyWlLk6GJQsqaUBKTNV-1">
          <mxGeometry x="-20" y="80" width="80" height="50" as="geometry" />
        </mxCell>
        <mxCell id="XHO9Ade1wazlr6MdinSi-35" style="edgeStyle=none;rounded=0;orthogonalLoop=1;jettySize=auto;html=1;entryX=0.035;entryY=0.755;entryDx=0;entryDy=0;entryPerimeter=0;" edge="1" parent="WIyWlLk6GJQsqaUBKTNV-1" source="XHO9Ade1wazlr6MdinSi-29" target="XHO9Ade1wazlr6MdinSi-2">
          <mxGeometry relative="1" as="geometry" />
        </mxCell>
        <mxCell id="XHO9Ade1wazlr6MdinSi-29" value="userId" style="strokeWidth=2;html=1;shape=mxgraph.flowchart.start_1;whiteSpace=wrap;" vertex="1" parent="WIyWlLk6GJQsqaUBKTNV-1">
          <mxGeometry x="180" y="510" width="80" height="50" as="geometry" />
        </mxCell>
        <mxCell id="XHO9Ade1wazlr6MdinSi-36" style="edgeStyle=none;rounded=0;orthogonalLoop=1;jettySize=auto;html=1;entryX=0.275;entryY=0.945;entryDx=0;entryDy=0;entryPerimeter=0;" edge="1" parent="WIyWlLk6GJQsqaUBKTNV-1" source="XHO9Ade1wazlr6MdinSi-30" target="XHO9Ade1wazlr6MdinSi-2">
          <mxGeometry relative="1" as="geometry" />
        </mxCell>
        <mxCell id="XHO9Ade1wazlr6MdinSi-30" value="name" style="strokeWidth=2;html=1;shape=mxgraph.flowchart.start_1;whiteSpace=wrap;" vertex="1" parent="WIyWlLk6GJQsqaUBKTNV-1">
          <mxGeometry x="250" y="570" width="80" height="50" as="geometry" />
        </mxCell>
        <mxCell id="XHO9Ade1wazlr6MdinSi-37" style="edgeStyle=none;rounded=0;orthogonalLoop=1;jettySize=auto;html=1;exitX=0.145;exitY=0.145;exitDx=0;exitDy=0;exitPerimeter=0;entryX=0.605;entryY=0.985;entryDx=0;entryDy=0;entryPerimeter=0;" edge="1" parent="WIyWlLk6GJQsqaUBKTNV-1" source="XHO9Ade1wazlr6MdinSi-31" target="XHO9Ade1wazlr6MdinSi-2">
          <mxGeometry relative="1" as="geometry" />
        </mxCell>
        <mxCell id="XHO9Ade1wazlr6MdinSi-31" value="timestamp" style="strokeWidth=2;html=1;shape=mxgraph.flowchart.start_1;whiteSpace=wrap;" vertex="1" parent="WIyWlLk6GJQsqaUBKTNV-1">
          <mxGeometry x="360" y="570" width="80" height="50" as="geometry" />
        </mxCell>
        <mxCell id="XHO9Ade1wazlr6MdinSi-33" style="edgeStyle=none;rounded=0;orthogonalLoop=1;jettySize=auto;html=1;" edge="1" parent="WIyWlLk6GJQsqaUBKTNV-1" source="XHO9Ade1wazlr6MdinSi-32" target="XHO9Ade1wazlr6MdinSi-2">
          <mxGeometry relative="1" as="geometry" />
        </mxCell>
        <mxCell id="XHO9Ade1wazlr6MdinSi-32" value="logId" style="strokeWidth=2;html=1;shape=mxgraph.flowchart.start_1;whiteSpace=wrap;" vertex="1" parent="WIyWlLk6GJQsqaUBKTNV-1">
          <mxGeometry x="180" y="430" width="80" height="50" as="geometry" />
        </mxCell>
        <mxCell id="XHO9Ade1wazlr6MdinSi-44" style="edgeStyle=none;rounded=0;orthogonalLoop=1;jettySize=auto;html=1;exitX=0.145;exitY=0.145;exitDx=0;exitDy=0;exitPerimeter=0;entryX=0.9;entryY=0.8;entryDx=0;entryDy=0;entryPerimeter=0;" edge="1" parent="WIyWlLk6GJQsqaUBKTNV-1" source="XHO9Ade1wazlr6MdinSi-38" target="XHO9Ade1wazlr6MdinSi-1">
          <mxGeometry relative="1" as="geometry" />
        </mxCell>
        <mxCell id="XHO9Ade1wazlr6MdinSi-38" value="userId" style="strokeWidth=2;html=1;shape=mxgraph.flowchart.start_1;whiteSpace=wrap;" vertex="1" parent="WIyWlLk6GJQsqaUBKTNV-1">
          <mxGeometry x="740" y="260" width="80" height="50" as="geometry" />
        </mxCell>
        <mxCell id="XHO9Ade1wazlr6MdinSi-42" style="edgeStyle=none;rounded=0;orthogonalLoop=1;jettySize=auto;html=1;" edge="1" parent="WIyWlLk6GJQsqaUBKTNV-1" source="XHO9Ade1wazlr6MdinSi-39" target="XHO9Ade1wazlr6MdinSi-1">
          <mxGeometry relative="1" as="geometry" />
        </mxCell>
        <mxCell id="XHO9Ade1wazlr6MdinSi-39" value="name" style="strokeWidth=2;html=1;shape=mxgraph.flowchart.start_1;whiteSpace=wrap;" vertex="1" parent="WIyWlLk6GJQsqaUBKTNV-1">
          <mxGeometry x="770" y="180" width="80" height="50" as="geometry" />
        </mxCell>
        <mxCell id="XHO9Ade1wazlr6MdinSi-41" style="edgeStyle=none;rounded=0;orthogonalLoop=1;jettySize=auto;html=1;exitX=0.145;exitY=0.855;exitDx=0;exitDy=0;exitPerimeter=0;entryX=0.855;entryY=0.145;entryDx=0;entryDy=0;entryPerimeter=0;" edge="1" parent="WIyWlLk6GJQsqaUBKTNV-1" source="XHO9Ade1wazlr6MdinSi-40" target="XHO9Ade1wazlr6MdinSi-1">
          <mxGeometry relative="1" as="geometry" />
        </mxCell>
        <mxCell id="XHO9Ade1wazlr6MdinSi-40" value="roleId" style="strokeWidth=2;html=1;shape=mxgraph.flowchart.start_1;whiteSpace=wrap;" vertex="1" parent="WIyWlLk6GJQsqaUBKTNV-1">
          <mxGeometry x="730" y="110" width="80" height="50" as="geometry" />
        </mxCell>
      </root>
    </mxGraphModel>
  </diagram>
</mxfile>
